# xmcd
#
# Track frame offsets:
#	150
#	45001
#	72564
#	111320
#	137665
#	161147
#
# Disc length: 2656 seconds
#
# Revision: 1
# Processed by: cddbd v1.5.2PL0 Copyright (c) Steve Scherf et al.
# Submitted via: audiograbber 1.83.01
#
DISCID=4f0a5e06
DTITLE=Grateful Dead - 84-11-03 Berkeley Community Theatre, Berkeley CA
DYEAR=1900
DGENRE=
TTITLE0=Feel Like A Stranger
TTITLE1=Cumberland Blues
TTITLE2=Gloria
TTITLE3=Why Don't We Do It In The Road
TTITLE4=Jam
TTITLE5=Drums
EXTD=
EXTT0=
EXTT1=
EXTT2=
EXTT3=
EXTT4=
EXTT5=
PLAYORDER=
